<?xml version="1.0" encoding="UTF-8"?>
<svg width="51px" height="70px" viewBox="0 0 51 70" version="1.1" xmlns="http://www.w3.org/2000/svg" xmlns:xlink="http://www.w3.org/1999/xlink">
    <!-- Generator: Sketch 50.2 (55047) - http://www.bohemiancoding.com/sketch -->
    <title>Group 4</title>
    <desc>Created with Sketch.</desc>
    <defs>
        <polygon id="path-1" points="0 0.0002 50.904 0.0002 50.904 69.8657 0 69.8657"></polygon>
    </defs>
    <g id="Page-1" stroke="none" stroke-width="1" fill="none" fill-rule="evenodd">
        <g id="Desktop-HD-Copy" transform="translate(-955.000000, -4084.000000)">
            <g id="Group-4" transform="translate(955.000000, 4084.000000)">
                <mask id="mask-2" fill="white">
                    <use xlink:href="#path-1"></use>
                </mask>
                <g id="Clip-2"></g>
                <path d="M47.2784,64.9007 C47.2754,64.9037 47.2734,64.9107 47.2704,64.9137 C47.2654,64.9187 47.2604,64.9207 47.2564,64.9237 C46.9874,65.2427 46.8444,65.4017 46.3374,65.5737 C45.4784,63.5287 41.6294,51.1857 46.6494,3.2697 C46.6514,3.2587 46.6464,3.2487 46.6464,3.2367 C46.8184,2.6687 47.0484,2.4437 47.1204,2.3647 C52.5494,54.2377 47.5744,64.3687 47.2784,64.9007 M3.5294,65.8297 C2.9324,64.5917 -1.4946,53.3457 3.7474,3.3137 C3.7504,3.2897 3.7404,3.2687 3.7404,3.2447 C3.9464,2.5627 4.6004,2.2317 4.6904,2.1097 C6.5384,1.0217 6.8364,0.9727 11.1354,2.0487 C10.9864,2.2917 10.8534,2.5857 10.7514,2.9457 C10.7294,3.0227 9.2424,18.7847 8.8164,25.5857 C8.7954,25.9307 9.0574,26.2267 9.4004,26.2467 C9.4144,26.2477 9.4274,26.2477 9.4394,26.2477 C9.4654,26.2477 9.5204,26.2367 9.5234,26.2387 C13.7014,27.3597 17.6684,27.8217 21.6464,27.8217 C26.3284,27.8217 31.0244,27.1797 36.0904,26.2207 C36.4274,26.1567 36.6504,25.8297 36.5874,25.4917 C36.5794,25.4557 37.6074,11.2197 38.4394,3.2687 C38.4424,3.2447 38.4324,3.2237 38.4324,3.1997 C38.6374,2.5567 39.2764,2.2317 39.3644,2.1117 C41.2154,1.0217 41.5104,0.9717 45.8134,2.0487 C45.6654,2.2917 45.4104,3.1307 45.4094,3.1397 C40.5834,49.2007 43.8544,62.5977 45.1144,65.8217 C20.4294,69.5817 15.5134,69.5717 3.5294,65.8297 M12.4534,2.3507 L12.4564,2.3507 C13.1994,9.4507 13.7864,16.1467 14.2024,22.2677 C14.1754,22.3147 14.2404,23.0877 14.5744,23.1757 C18.6074,24.2437 22.5264,24.7687 26.7994,24.7687 C29.4784,24.7687 32.3074,24.5527 35.3784,24.1457 C35.3574,24.4627 35.3354,24.7817 35.3154,25.0957 C26.1944,26.7937 18.7184,27.3607 10.1004,25.0977 C10.5244,18.4617 11.1524,11.1397 11.9724,3.3137 C11.9744,3.2907 11.9664,3.2687 11.9654,3.2457 C12.1464,2.6427 12.3954,2.4197 12.4534,2.3507 M48.3674,2.2887 C48.3864,2.1867 47.7484,1.1187 47.2084,1.1127 C41.4064,-0.3503 41.1674,-0.4033 38.5434,1.1487 C38.5054,1.1707 38.4834,1.2037 38.4524,1.2307 C37.9034,1.4787 37.4484,2.0937 37.2054,2.9457 C37.1794,3.0357 35.8794,16.8047 35.4604,22.8747 C27.7684,23.9187 21.7054,23.6837 15.4414,22.0997 C15.0244,15.9937 13.7044,2.0667 13.6724,1.9767 C13.4844,1.4387 13.0644,1.1277 12.5334,1.1137 C6.7284,-0.3503 6.4904,-0.4033 3.8634,1.1487 C3.8264,1.1707 3.8024,1.2037 3.7704,1.2327 C3.2234,1.4817 2.5064,3.1807 2.5054,3.1837 C-3.2846,58.4527 2.7674,66.8557 2.8114,66.8827 C3.5354,67.3027 11.4614,69.8657 19.5674,69.8657 C28.1974,69.8657 46.1324,66.9247 46.1394,66.9227 C46.1544,66.9217 47.7004,66.3257 48.1974,65.7427 C48.2024,65.7387 48.2094,65.7357 48.2144,65.7307 C48.2734,65.6637 54.1344,57.4347 48.3674,2.2887" id="Fill-1" fill="#FFFFFF" mask="url(#mask-2)"></path>
            </g>
        </g>
    </g>
</svg>