<?xml version="1.0" encoding="UTF-8"?>
<svg width="29px" height="92px" viewBox="0 0 29 92" version="1.1" xmlns="http://www.w3.org/2000/svg" xmlns:xlink="http://www.w3.org/1999/xlink">
    <!-- Generator: Sketch 50.2 (55047) - http://www.bohemiancoding.com/sketch -->
    <title>Group 10</title>
    <desc>Created with Sketch.</desc>
    <defs>
        <polygon id="path-1" points="0 0.0004 28.054 0.0004 28.054 91.2074 0 91.2074"></polygon>
    </defs>
    <g id="Page-1" stroke="none" stroke-width="1" fill="none" fill-rule="evenodd">
        <g id="Desktop-HD-Copy" transform="translate(-966.000000, -3888.000000)">
            <g id="Group-10" transform="translate(966.000000, 3888.000000)">
                <g id="Group-3">
                    <mask id="mask-2" fill="white">
                        <use xlink:href="#path-1"></use>
                    </mask>
                    <g id="Clip-2"></g>
                    <path d="M26.853,78.75 C26.853,82.379 25.396,88.645 23.459,89.531 C21.24,90.549 18.779,89.718 18.026,88.963 C16.97,87.91 11.284,87.705 10.024,88.963 C9.272,89.715 6.813,90.549 4.591,89.53 C2.655,88.643 1.199,82.379 1.199,78.748 L1.199,47.822 C1.199,45.208 1.835,43.39 2.345,41.929 C2.68,40.969 2.97,40.14 2.97,39.351 C2.97,38.694 2.771,38.088 2.52,37.321 C1.994,35.715 1.198,33.288 1.198,27.728 C1.198,19.843 9.169,13.289 9.249,13.223 C9.39,13.109 9.472,12.938 9.472,12.757 L9.472,10.262 L18.577,10.262 L18.577,12.757 C18.577,12.938 18.659,13.109 18.801,13.223 C18.881,13.288 26.852,19.843 26.852,27.728 C26.852,33.288 26.055,35.714 25.528,37.321 C25.276,38.088 25.077,38.694 25.077,39.351 C25.077,40.14 25.368,40.969 25.703,41.929 C26.216,43.39 26.851,45.208 26.851,47.822 L26.851,78.751 L26.853,78.751 L26.853,78.75 Z M8.615,9.063 L19.436,9.063 L19.436,7.44 L8.615,7.44 L8.615,9.063 Z M9.365,1.2 L18.686,1.2 C19.1,1.2 19.436,1.536 19.436,1.95 L19.436,6.64 L8.615,6.64 L8.615,1.95 C8.615,1.537 8.951,1.2 9.365,1.2 Z M26.278,39.351 C26.278,38.885 26.442,38.386 26.669,37.695 C27.188,36.118 28.054,33.48 28.054,27.728 C28.054,19.937 21.148,13.647 19.78,12.477 L19.78,10.263 L21.236,10.263 L21.236,9.063 L20.636,9.063 L20.636,1.95 C20.636,0.875 19.761,0 18.687,0 L9.366,0 C8.291,0 7.416,0.875 7.416,1.95 L7.416,9.062 L6.816,9.062 L6.816,10.262 L8.274,10.262 L8.274,12.476 C6.906,13.646 0,19.937 0,27.727 C0,33.478 0.865,36.117 1.382,37.694 C1.609,38.385 1.772,38.884 1.772,39.35 C1.772,39.935 1.526,40.64 1.214,41.532 C0.702,42.996 0,45.004 0,47.821 L0,78.749 C0,81.691 1.178,89.288 4.092,90.622 C6.764,91.849 9.748,90.937 10.874,89.811 C11.615,89.069 16.573,89.225 17.18,89.811 C17.924,90.556 19.482,91.206 21.225,91.206 C22.116,91.206 23.057,91.038 23.961,90.622 C26.875,89.288 28.053,81.691 28.053,78.749 L28.053,47.822 C28.053,45.005 27.351,42.997 26.838,41.532 C26.525,40.64 26.278,39.936 26.278,39.351 Z" id="Fill-1" fill="#FFFFFF" mask="url(#mask-2)"></path>
                </g>
                <polygon id="Fill-4" fill="#FFFFFF" points="6 37.8 22.992 37.8 22.992 37 6 37"></polygon>
            </g>
        </g>
    </g>
</svg>