<?xml version="1.0" encoding="UTF-8"?>
<svg width="43px" height="65px" viewBox="0 0 43 65" version="1.1" xmlns="http://www.w3.org/2000/svg" xmlns:xlink="http://www.w3.org/1999/xlink">
    <!-- Generator: Sketch 50.2 (55047) - http://www.bohemiancoding.com/sketch -->
    <title>Group 5</title>
    <desc>Created with Sketch.</desc>
    <defs></defs>
    <g id="Page-1" stroke="none" stroke-width="1" fill="none" fill-rule="evenodd">
        <g id="Desktop-HD-Copy" transform="translate(-959.000000, -4294.000000)" fill="#FFFFFF">
            <g id="Group-5" transform="translate(959.000000, 4294.000000)">
                <path d="M35.0617,29.5359097 C35.0617,29.5377153 35.0607,29.5395208 35.0607,29.5413264 L35.0607,34.2890347 L33.3077,34.2890347 L33.3077,29.5413264 C33.3077,26.6849375 33.1917,26.5802153 30.2147,23.8926458 C27.4647,21.4100069 27.4647,21.4100069 27.4647,18.9905625 L27.4647,16.3526458 C27.4647,10.8267431 30.4797,6.33000694 34.1837,6.33000694 C37.8887,6.33000694 40.9037,10.8258403 40.9037,16.3526458 L40.9047,18.9896597 C40.9047,21.4091042 40.9047,21.4091042 38.1537,23.8917431 C35.1797,26.5775069 35.0617,26.6840347 35.0617,29.5359097 Z M33.3077,63.3025069 L35.0607,63.3025069 L35.0607,35.3434792 L33.3077,35.3434792 L33.3077,63.3025069 Z M42.0727,16.3526458 C42.0727,10.2444514 38.5337,5.27465972 34.1847,5.27465972 C29.8357,5.27465972 26.2957,10.2444514 26.2957,16.3526458 L26.2957,18.9905625 C26.2957,21.8469514 26.4117,21.9516736 29.3887,24.6392431 C32.1387,27.1218819 32.1387,27.1218819 32.1387,29.5413264 L32.1387,34.8153542 L32.1387,63.8297292 C32.1387,64.1213264 32.4007,64.3569514 32.7237,64.3569514 L35.6447,64.3569514 C35.9677,64.3569514 36.2297,64.1213264 36.2297,63.8297292 L36.2297,34.8153542 L36.2297,29.5458403 C36.2297,29.5440347 36.2297,29.5422292 36.2297,29.5404236 C36.2297,27.1209792 36.2297,27.1209792 38.9807,24.6383403 C41.9577,21.9516736 42.0727,21.8460486 42.0727,18.9905625 L42.0727,16.3526458 Z" id="Fill-1"></path>
                <path d="M18.699,63.3027778 L20.452,63.3027778 L20.452,35.34375 L18.699,35.34375 L18.699,63.3027778 Z M15.778,26.6852083 L15.778,3.16513889 C15.778,2.00145833 16.826,1.05444444 18.115,1.05444444 C19.404,1.05444444 20.452,2.00145833 20.452,3.16513889 L20.452,34.2884028 L18.699,34.2884028 L18.699,32.1786111 C18.699,29.3809028 18.581,29.2165972 15.778,26.6852083 Z M18.115,0 C16.182,0 14.609,1.41916667 14.609,3.16513889 L14.609,26.9027778 C14.609,26.9722917 14.624,27.04 14.654,27.1040972 C14.684,27.1690972 14.727,27.2277778 14.78,27.2765278 C17.531,29.7591667 17.531,29.7591667 17.531,32.1786111 L17.531,34.815625 L17.531,63.8290972 C17.531,64.1206944 17.792,64.3572222 18.115,64.3572222 L21.036,64.3572222 C21.359,64.3572222 21.621,64.1206944 21.621,63.8290972 L21.621,34.815625 L21.621,3.16513889 C21.621,1.41916667 20.048,0 18.115,0 Z" id="Fill-3"></path>
                <path d="M4.091,63.3027778 L5.844,63.3027778 L5.844,35.34375 L4.091,35.34375 L4.091,63.3027778 Z M9.934,5.80305556 C9.934,5.51145833 9.672,5.27493056 9.349,5.27493056 C9.027,5.27493056 8.766,5.51145833 8.766,5.80305556 L8.766,24.0472917 C5.965,26.5777778 5.844,26.7429861 5.844,29.5361806 C5.844,29.5379861 5.844,29.5388889 5.844,29.5406944 L5.844,34.2884028 L4.091,34.2884028 L4.091,29.5406944 C4.091,26.7429861 3.971,26.5786806 1.169,24.0472917 L1.169,5.80305556 C1.169,5.51145833 0.908,5.27493056 0.585,5.27493056 C0.262,5.27493056 0,5.51145833 0,5.80305556 L0,24.2657639 C0,24.334375 0.016,24.4029861 0.045,24.4670833 C0.074,24.5311806 0.118,24.5898611 0.171,24.6386111 C2.921,27.1221528 2.921,27.1221528 2.921,29.5406944 L2.921,34.815625 L2.921,63.8290972 C2.921,64.1206944 3.183,64.3572222 3.505,64.3572222 L6.427,64.3572222 C6.75,64.3572222 7.012,64.1206944 7.012,63.8290972 L7.012,34.815625 L7.012,29.5452083 C7.012,29.5443056 7.013,29.5425 7.013,29.5406944 C7.013,27.12125 7.013,27.12125 9.763,24.6386111 C9.816,24.5898611 9.859,24.5311806 9.889,24.4661806 C9.919,24.4011806 9.934,24.3334722 9.934,24.2648611 L9.934,5.80305556 Z" id="Fill-5"></path>
                <path d="M3.5067,16.8800486 C3.8297,16.8800486 4.0917,16.6435208 4.0917,16.3519236 L4.0917,5.80296528 C4.0917,5.51136806 3.8297,5.27484028 3.5067,5.27484028 C3.1837,5.27484028 2.9227,5.51136806 2.9227,5.80296528 L2.9227,16.3528264 C2.9227,16.6435208 3.1837,16.8800486 3.5067,16.8800486" id="Fill-6"></path>
                <path d="M6.4288,16.8800486 C6.7518,16.8800486 7.0138,16.6435208 7.0138,16.3519236 L7.0138,5.80296528 C7.0138,5.51136806 6.7518,5.27484028 6.4288,5.27484028 C6.1058,5.27484028 5.8438,5.51136806 5.8438,5.80296528 L5.8438,16.3528264 C5.8438,16.6435208 6.1058,16.8800486 6.4288,16.8800486" id="Fill-7"></path>
            </g>
        </g>
    </g>
</svg>