<svg id="Layer_1" data-name="Layer 1" xmlns="http://www.w3.org/2000/svg" viewBox="0 0 606 622"><defs><style>.cls-1,.cls-2,.cls-3{fill:#fff;stroke:#fff;}.cls-1{stroke-width:0.4px;}.cls-2{stroke-width:0.08px;}.cls-3{stroke-width:0.1px;}</style></defs><title>Untitled-2</title><path id="va-5" class="cls-1" d="M558.59,462.85a0.54,0.54,0,0,0-.43.64,0.72,0.72,0,0,0,.43.64,0.54,0.54,0,0,0,.43-0.64C559.23,463.06,559,462.85,558.59,462.85Z"/><path id="ad-4" class="cls-1" d="M279.51,430.72c-12,3.43-5.35-6.43-4.71-6.43C281.66,423.65,282.3,427.29,279.51,430.72Z"/><path id="fr-7" class="cls-1" d="M329.42,131.72a66.74,66.74,0,0,1-9.42,1.07c-2.36.21-11.14,0.86-12.21,4.07-0.43,1.29-2.57,14.35-2.57,16.06,0,0.86,1.29.86,1.29,1.29s-1.07-.64-1.5,0a3.17,3.17,0,0,0-.43,2.78c0.21,1.07,1.5,1.93,2.14,2.78-1.71-.64-2.57-0.43-4.28,2.78a0.76,0.76,0,0,1-.86.86c-1.93,1.07-3.21,2.78-5.14,3.43-4.71,2.78-22.7,3.21-25.27,7.5-3,5.14-1.93,7.28,0,8.35l1.5,0.21c-1.71.43-3,.64-3.86,1.29-1.93,1.71-6.21,3.43-9,1.71s-5.14-2.78-7.92-2.78c-2.78-.21-9.21-3.21-10.71-1.5s-1.29,0-1.07-1.29-2.57-2.36-3-4.28,2.57-1.93,1.71-4.5-4.71-1.29-5.78-.21-3.43-.21-5.57-1.07-4.71-1.93-5.78-1.93,0.21,1.71,1.5,2.36a2.34,2.34,0,0,1,.43,3.64c-1.07.86,0.43,0.64,0.43,2.78,0,2.36,1.29,2.14,2.57,4.71,1.5,2.57.64,3,2.36,4.28,1.5,1.29-.43.21-0.43,3.86s1.5,1.5.43,5.35-1.5,7.5,1.07,8.35,2.78,1.93-1.29,1.71-8.57,1.5-7.5-1.5c1.07-2.78-.21-3.21-2.14-2.14s-2.36,1.29-2.36,1.29-1.71-.86-2.57.21-2.57,1.5-1.93-.43c0.64-1.71-.43-2.78-3.64-1.5a56.84,56.84,0,0,0-7.28,4.07l-3.21-3,0.21-2.57L195.55,197l0.86-1.29s-3.43,1.29-2.36-.64c1.07-1.71,1.71-3,1.71-3a1,1,0,0,0-1.5.43,2.15,2.15,0,0,1-1.29,1.07s1.07-2.14-.64-1.71a11.18,11.18,0,0,0-2.57,1.29s0.43-2.36-.64-1.71c-1.29.64-2.57,2.57-4.71,1.07-1.93-1.5-2.14-.64-2.14-0.64l-2.14.64s-0.21,2.14,1.07,2.36-1.5-.21-1.07,1.5-1.5-.64-4.71-1.5c-3.43-.64-1.29,2.78-1.29,2.78s-1.29.21-2.57-3c-1.5-3.21-1.5-.43-4.71,0s-3.86,2.36-4.93.64-6.43,1.29-9,1.71-2.57,4.28-1.93,6c0.43,1.71,3,1.93,5.57,1.07a39.47,39.47,0,0,1,6.64-1.29s-5.14,1.07-4.28,2.14c0.64,0.86,2.57.64,3.64,0.43-0.21.21-.21,0.43,0.64,0.86,1.71,1.07-.86,1.71-3.64.64-2.57-1.29-2.14-2.57-3.86-1.07s1.5,0.64.64,2.57c-0.64,1.93.43,1.5,1.71,0.64,1.5-.86,1.93,1.07,3.64,1.5,1.5,0.43,2.78,3.86-1.29,2.78s-8.35-1.07-9,.43c-0.43,1.5,7.07,1.71,7.5,4.71s2.14,2.36.43,3.86c-1.5,1.71,1.5,2.36,3.86,2.14s0.43-3.64,2.14-2.14c1.5,1.5,3.21,1.71,3.64.43s0.43,1.07,3.21,3c2.57,1.93,3.64,1.5,5.78,2.36,1.93,0.86,1.71,2.78,3.21,2.78,1.29,0.21,1.5-.86,2.78-1.71a2.21,2.21,0,0,0-.43,2.57c1.07,1.93,3.64.64,3.64-.86s3-.64.64,1.29c-2.36,1.71-.86.43-1.29,3.43s1.29,4.07,1.29,1.93,1.07,0,2.78-1.07,1.5-1.5,2.57-.43,2.57-.64,3.64.64,0,2.78-2.57,1.71-1.07-.43-0.21,1.71c0.86,1.93,3.64-1.07,6,0s3.21,1.29,1.93,2.78,3,1.29,0,1.93-1.5,0-1.71,2.36,0.64,1.93,2.78,2.78,2.36,1.5,4.07.21,4.07-2.57,7.07.43c3,2.78,3,3.86,4.28,3.86s-1.29,1.5-4.71-1.71c-3.43-3-5.14-3-5.78-.64s0.43,2.78-1.93,2.57,1.07,0.43,2.78,1.71c1.71,1.5,3.43,2.14,1.07,4.28s-3.64,3.43-3.21,5.78,4.28,4.71,4.71,9a32.62,32.62,0,0,0,.43,3.86s7.92,3.43,7.5,5.35,2.14,0.64,3.21,2.57c1.07,1.71.86,2.78,2.57,0.86s2.14,0.86,1.07,2.36-1.5.64-2.36,2.36,0.64,0.21,1.29,1.71c0.43,1.5,1.5,4.07,1.29,5.14s-2.14-.64-1.5,1.71c0.43,2.36-1.5,2.78-1.5,4.28v1.71s-1.71-1.93-2.57.64-0.86,1.29,1.07,2.57,4.28,5.14,6.21,7.92h0c0.21,0.21.21,0.64,0.43,0.86,1.5,7.5,0,12,4.28,16.71l-0.43,2.57c-0.21-.43-0.43-0.64-0.64-1.07-1.93-1.93-1.93-1.71-2.14-5.14A42,42,0,0,0,227.9,323c-1.07-3.86-2.36-1.71-3.21-3.43s0.64-4.28-1.07-3.43-1.71,1.07-2.36,4.07c-0.43,3-2.57,9.64-3.64,14.78-0.86,5.14-4.28,11.57-3,11.78s1.5-4.5,2.78-2.78,2.78,4.07,1.07,4.28-2.57-.64-3.21.64a13,13,0,0,1-1.5,2.78s-6.85,22.49-9.85,30.2-3,2.78-3.43,4.93V387a10.43,10.43,0,0,1-2.57.21,9.1,9.1,0,0,1-3.64,1.07,57.57,57.57,0,0,0,4.5,4.28c0.43,0.21.21-1.07,0.43-1.07,1.29,0.21,3,.86,3.64,1.93,2.36,2.78-5.35,6-1.93,7.5,1.5,0.64,3.21-2.36,3.64-1.93,0.21,0.64-.43,1.93,0,2.36,3.64,3.43,9.64,2.14,13.07,4.93,0.21,0.21,3,6.64,3.21,6.64,3.43,2.78,6.85-2.14,10.71,1.07,1.93,1.71.43,5.14,4.07,5.14,1.5,0.21,2.57-1.29,4.28-1.07,1.5,0.21,2.36,2.14,4.07,2.36,0.86,0,.86-1.71,1.5-1.71,2.57-.21,5.14,1.93,7.92,2.14,0,0-1.29-6.21,1.93-5.57,4.5,0.86,7.28,4.07,10.07,6.64a3.5,3.5,0,0,0,1.5,0c1.29,0.21,3,.21,3.64,1.07,1.29,1.07.43,3.43,1.93,4.28v0.21a4.69,4.69,0,0,1,1.5-2.36c6.85-.64,7.5,3,4.71,6.43,1.93,0.86,4.07,1.29,5.35,2.36,0.43,0.64.86,3.43,2.36,3.21,2.14-.21,4.07-1.71,6.43-1.71,2.57,0,7.28,5.35,9.85,4.5,1.07-.21,0-2.36.86-3,4.07-2.78,8.78-.21,13.07.86h1.07c-1.5-1.29-3.21-2.78-3.64-4.28-1.93-5.35,1.5-4.07.21-8.78-0.21-.86-2.14-0.64-2.14-1.29,0.21-3,3.64-4.5,4.28-7.28,0-.86-1.29-1.93-0.86-2.36,3.21-4.5,8.57-3.43,11.14-4.93,3-1.71,7.28-7.07,10.07-8.78,2.57-1.71,5.35,1.93,7.5,3,0.86,0.64,10.07,1.71,10.49,2.78,0.21,1.07-3.43,6.85,5.14,3.21,0.64-.21.64-0.64,0.21-1.07-1.07-1.29-5.14-3.21-2.36-6.43,0.64-.86-0.21,4.71,2.36,6.43a3.1,3.1,0,0,0,1.5.43,6.93,6.93,0,0,0,5.35-1.93c0.86-1.07-2.14-4.07-.43-4.5,1.93-.21,4.71,1.29,4.71,3.43-0.21,2.14-5.14,1.5-5.35,3.64-0.21,1.71,3,1.07,4.5,1.07,1.07,0,2.14-1.93,2.57-1.07,1.07,1.29-.21,4.07,1.07,5.35s3.43,1.07,5.35,1.71a10.16,10.16,0,0,1,2.57,0c3.64,1.93,1.93,3.21,1.93,3.86,0.21,0.64,1.07.64,1.93,0.64a2.84,2.84,0,0,0,2.36-.21c0.43-.64-3.21-2.14.21-1.93,5.35,0.21,3.43,4.07,5.78,3.21,2.14-.86,3.64-3.21,6.21-3.86,1.71-.21,3.86.64,5.35,0,0,0.43-.21.43,0.43,0.21,1.07-.64.86-0.86,1.07-2.14,0.21-1.07,1.5-1.71.21-1.71-1.5,0-2.36-.21-0.43-0.86,1.71-.43,1.5-1.29,1.71-2.57a6.62,6.62,0,0,0,.43-1.71h0.21c0.43-.21,1.29.21,2.57,0.64,1.71,0.64,2.14-.86,3-2.57s-0.21-1.71,1.71-2.36a1.29,1.29,0,0,1,.86-0.21h2.14c0.21,0,.21-0.21.21-0.43h0a1.37,1.37,0,0,0,0-1.29v-0.21a3.84,3.84,0,0,1,1.93-1.71c1.93-1.07,2.36-1.29,3-1.07h0c0,0.21,0,.64.21,0.64s0.21-.21,0-0.64h0c0.43,0.43.86,0.21,1.5,0v-0.43h-0.21c-0.86-.21-0.64-1.07.86-1.93a3.05,3.05,0,0,1,.86-0.43c0.64-.21.64,0.43,0.43,1.07h0.43a8,8,0,0,0,1.5-1.29,3,3,0,0,0-.43-1.29c0.21-4.71,7.5-10.07,3.86-12.64-1.29-.86-3.21.21-4.71,0.64-1.5,0-3.43.86-5.14,0.21-3-.86-9.85-6-9.64-9.64,0-.64,1.29-0.64,1.29-1.07-0.21-.86-3-1.71-2.14-3.21a22.77,22.77,0,0,0,3.21-3.21c0.21-.21-0.43-0.86-0.21-1.29,0.21-.86,2.57.64,3-0.21a13.62,13.62,0,0,0-1.07-6c-1.29-2.14-10.07-5.57-9.64-9.85,0-1.29,2.36-1.29,3.64-1.71,0.86,0,1.29,1.71,2.14,1.29,1.29-.21,9.85-7.28,8.57-9.64-0.86-1.71-3.43-1.93-4.28-3.86-0.86-1.07.21-3-.21-4.07-3.64-6.43-10.71-3.21,1.5-10.49-1.07-1.71-1.07-3.43-2.36-4.93-0.21-.64-1.29,1.07-1.5.64-0.21-.86,1.07-2.14.43-3-0.21-.86-1.93,0-2.36-0.64-1.5-2.78,2.14-2.36,1.93-4.07-0.21-1.29-1.93-1.93-1.93-3.21-0.21-.86,1.93-2.36.86-2.78-3.43-1.71-10.92-1.71-13.28,2.14-0.43.64-.21,1.07-0.21,1.93,0.21,0.64,1.5,1.07,1.29,1.71-1.5,3.21-5.35,4.5-8.57,3.86-0.21,0,1.07-.64,1.07-1.07,0-3.43,2.57-2.14,3-3,1.29-4.28-2.14-8.14,1.07-12,1.93-2.78,6.64-2.78,7.71-5.57,0.86-1.71-.86-4.07,0-6,1.07-2.14,4.71-1.29,6.43-3.21,1.93-1.71,4.07-7.07,6.43-8.78,1.29-1.07,2.57,1.93,3-1.93,0-1.29-4.07,1.29-4.28,0-0.43-1.29,1.5-2.36,2.36-3.43,0,0,.43.21,0.43,0,0-.64-1.07-1.71-0.43-1.93,7.5-2.14,4.28,8.14,13.28-1.29-0.21,0-.21-1.07-0.21-4.5-0.21-3.86,2.36-7.28,2.57-10.92,0-.64-1.07-0.64-1.07-1.29a7,7,0,0,1,.86-4.07l3.64-6.21c0.21-1.71.43-7.5,1.29-9.42,2.14-4.28,7.5-7.5,10.49-12.64,1.07-1.93-15-3.86-16.06-4.5-0.86-.86-0.21-2.36-1.07-3.21-1.29-1.07-9.85,2.36-10.49,1.71-0.21-.86.86-1.93,0.21-2.36-7.92-7.28-2.57,3.86-5.78.21-2.57-2.78-4.07-8.78-6.21-10.28-0.86-.86-2.36,0-3-0.86a10.91,10.91,0,0,0-4.5-1.29c-1.29,0-2.57,1.29-4.28,1.29-0.21.21,0-.86-0.21-1.07-1.07-.64-2.14-1.07-3.43-1.71a9.66,9.66,0,0,0-2.36-.64c-1.93-.21-3.64,1.71-5.35.86-1.29-.64-0.21-3-1.07-4.07-0.43-.86-1.93-0.21-2.57-0.86-0.21-.21,1.07-0.86,1.07-1.07a1.66,1.66,0,0,0-1.07-1.29c-0.43-.21-1.29.86-1.5,0.64-1.07-.86-1.29-2.36-2.36-3.21-1.93-.86-4.5,0-5.57-1.71-1.07-1.07,1.07-2.78,1.07-4.07-0.21-1.07-1.93-1.29-1.93-2.36,0-1.29,1.07-2.36,1.29-3.43,0.21-.86,1.5-1.71,1.07-2.14-1.93-1.71-3.43,3.21-5.35,4.93-3.64,3.43-12.64,1.29-11.78-.21,0.86-1.29,2.14-2.14,2.14-3.43,0-.86-2.14-0.86-1.93-1.93,0-1.71,2.14-3,2.14-4.5-0.43-4.5-11.57-1.93-12-4.07-0.21-1.07.43-2.36,0.21-3.43-0.86-4.28-6.64,0-8.35-3.86-1.07-2.14.43-8.35-3-9.64-1.5-.86-3,3-5.14,3-4.5-.86-4.71-11.14-5.35-15h0ZM140.72,197c-1.5.64-2.57,1.71-1.29,1.71C140.72,199,142.44,198.76,140.72,197Zm37.91,34.27c-0.86,0-1.07,1.07.43,1.71,1.71,0.86,2.78.21,0.64-1.5a9.26,9.26,0,0,1-1.07-.21h0Zm4.71,10.49c-1.07.43-1.07,2.57,2.14,4.28,4.07,2.14,1.29-2.36-.86-3.86A0.79,0.79,0,0,0,184,242a1.66,1.66,0,0,0-.64-0.21h0Zm20.78,16.49s-1.93,1.93.21,2.57,3,1.71,1.93.43c-1.07-1.5,1.29-2.36-2.14-3h0Zm-3.64,9.21-1.07,2.14,3.43,0.64Zm16.71,21.2c-1.71,0-3,1.5-.43,1.71,2.57,0.43,4.07,2.78,5.78,2.78,1.93,0.21-1.71-4.5-5.35-4.5h0Zm2.36,8.14c-1.29,1.29-.43,4.5.86,7.07,1.5,2.57,2.36-.21,2.14-2.14s-1.29-2.78-3-4.93h0Z"/><path id="gg-9" class="cls-2" d="M217.4,167.49h-0.64c-1.29.21-.64,0.64,0.21,0.43,0.64-.21.86-0.43,0.43-0.43h0Zm-9,6.21h0c0,0.43,0,.43-0.43.43-0.43-.21-1.07.86-1.5,0.86s-0.86,0-.86.43c0.21,0.43,0,.43-0.43.43s0,0.64,1.29.86c1.29,0,1.71.21,1.93-.21,0.21-.64,0-1.07.43-1.29a1,1,0,0,0,.43-1.07c0-.43-0.43,0-0.43,0-0.21-.43-0.21-0.43-0.43-0.43h0Zm1.93,1.07c-0.21,0,0,.21,0,0.64,0.21,0.43.64,0,.21-0.43a0.21,0.21,0,0,0-.21-0.21h0Zm2.14,1.29v0.21c0,0.43-.86,1.29-0.43,1.07a0.82,0.82,0,0,0,.64-1.07l-0.21-.21h0Z"/><path id="je-0" class="cls-2" d="M214.19,182.7a0.66,0.66,0,0,0,.21.43,1.3,1.3,0,0,1,0,1.71c-0.43.21,0,.64,0.64,0.43s0.21,0.21.43,0.21c0.21,0.21.64,0.21,0.43-.21-0.21-.64.21-0.43,0.64-0.43s0.21,0.86.64,0.64,0.21,0.43.86,0.43,0.86,0.21.86-.43c0-.43.43-0.21,0.21-0.64s0.21-.86-0.21-1.07c-0.21-.43-1.07,0-1.07-0.64a1.32,1.32,0,0,0-1.5-.43,1.76,1.76,0,0,1-1.5-.21,0.79,0.79,0,0,1-.64.21h0Z"/><path id="mc-6" class="cls-3" d="M429.23,397.95c0-.64,0-1.07-0.43-1.07a2.26,2.26,0,0,0-1.07.43c-1.5.86-1.5,1.71-.86,1.93h0.21Z"/></svg>