<svg id="Layer_1" data-name="Layer 1" xmlns="http://www.w3.org/2000/svg" viewBox="0 0 606 622"><defs><style>.cls-1{fill:#c1c0c0;}.cls-1,.cls-2{stroke:#fff;stroke-width:0.4px;}.cls-2{fill:#fff;}</style></defs><title>Untitled-2</title><path id="va-5" class="cls-1" d="M558.59,462.85a0.54,0.54,0,0,0-.43.64,0.72,0.72,0,0,0,.43.64,0.54,0.54,0,0,0,.43-0.64C559.23,463.06,559,462.85,558.59,462.85Z"/><path id="de-2" class="cls-2" d="M461.78,0h0l-0.64.64c-0.64,1.29-1.5,2.14-2.36,7.92,0,1.29.64,2.36,0.64,1.5a18.39,18.39,0,0,1,.64-3.64c0.21-.64.64-0.43,1.29,0s0.86,0,2.14-.43,1.5-1.07,1.07-1.07a7.8,7.8,0,0,1-3.21,0c-1.29-.21-0.21-1.93,0-3.21A1.48,1.48,0,0,1,462.64.43,0.93,0.93,0,0,1,461.78,0h0Zm4.5,5.14a14.82,14.82,0,0,0,1.07,6c0.21,0.64,2.36,3,4.07,5.14-0.64,1.93-.21,1.93-1.29,2.57-0.86.64-.86,2.36,0.86,1.71a3.58,3.58,0,0,0,2.36-1.93,4,4,0,0,0,.64.86c-0.86,3.64-4.93,2.14-7.92,3.43,0.21,0.21,2.36.43,1.29,1.71-0.21.64-2.36-.43-2.14,0.21,0.21,1.71.21,3,4.71,2.14,0.64,0.86.64,0.86,1.07,0.64a6.37,6.37,0,0,0,1.5-1.71h0.43c-1.93,2.36-3.21,2.57-3,6.21a1.93,1.93,0,0,0,1.07.21c0.86-.21,1.07.43,1.71,1.71s0.43,1.93-.86,1.5c-1.07-.21-1.29-0.43-1.93,0A11.29,11.29,0,0,0,471,38.77c-0.43,3.86,5.57,2.14,6.21,2.14,4.93,0.43,3.64,4.93,6.64,6.21,0.86,1.93-.43,4.07,7.07,6-7.28-1.07-6.85-3-8.14-5.14-2.57-2.14-2.36-4.93-4.28-5.78-2.36-1.07-5.35,1.07-7.92.64a5.45,5.45,0,0,1-3.21-.64c-0.86-.21-0.86-2.14-1.29-1.93C460.5,45,462.21,49,463.5,52.69c-3.64-.86-5.14-4.71-6.43-1.71-1.71,4.28,2.36.43,0.86,5.57-0.21.86-1.5,1.5-2.78-.64-0.43,0-1.71-.43-1.5-1.29s2.36-1.5,1.29-3.21c-1.29-2.36-2.14-3-1.93-4.28a3.62,3.62,0,0,0-1.29-.64c-5.57-.21-6.43.43-9.21,1.29-1.5-.43-4.93-0.64-6.21,0a8.78,8.78,0,0,0-3,3.21c0.86,0.86,1.5,1.29,1.07,1.29-0.64,0-1.07.21-.86,0.64s-0.21.21-1.07-.43c-1.29,2.36-2.14,5.14-1.07,6.64a22.66,22.66,0,0,0,4.28.64c0.21,0.43,1.5,1.29.43,2.78,0.43,4.5-4.07,13.28-4.5,15-0.86,2.14,1.07,6.43-1.07,6.43-1.93,0-3.43-.86-5.35-0.86-0.43,0-1.29,0-1.29.64-0.21.86,1.07,1.71,0.86,2.36,0,0.64-1.29-.21-1.5.64-2.36,4.07,7.5,2.36,7.71,6.21,1.07,6.64-4.07,7.71-8.35,10.71-2.36,1.71,3.43,1.93,2.57,3.86s-7.92,4.28-9.85,4.07c-1.93,0-3-1.93-4.5-2.36-0.43-.21.43,1.29,0,1.71-1.5.64-3.21-.21-4.5,0.64-0.43.21,0,1.07,0,1.71-0.21.64-.86,1.29-0.43,1.93,1.5,3,7.5,7.28,5.14,13.28-0.86,1.93-2.57,3.21-3.43,5.14-1.07,2.14,2.36.64,2.14,1.93l-5.14,4.5c-0.43,0,.21-1.29-0.64-0.86-2.36,3.86,4.07,1.29,3.21,6.85-0.21,1.07-2.14,1.07-2.36,2.14-0.21.86,3.43,6.43,3.64,6.64,0.43,0.64,2.14-.64,2.14.21,0.21,1.07-1.93,2.14-1.5,3.21,0.43,1.71,3,1.29,3.64,2.78,3.64,6.21-8.57,5.57-6.21,15.64,1.29,5.57,7.71,6.21,8.35,7.07,3.64,4.5-6.85,6.64-4.07,12,0.43,0.86,2.14,0,3,.86,2.14,1.29,3.43,7.5,6.21,10.28,3.21,3.43-2.14-7.5,5.78-.21,0.43,0.64-.43,1.71-0.21,2.36,0.43,0.86,9-2.78,10.49-1.71,0.86,0.86.21,2.36,1.07,3.21,1.07,0.86,17.13,2.78,16.06,4.5-3,5.14-8.35,8.35-10.49,12.64-0.86,1.93-1.07,7.71-1.29,9.42l-3.64,6.21c-0.43,1.29-1.07,2.78-.86,4.07,0,0.86,1.07.86,1.07,1.29-0.21,3.86-3,7.28-2.57,10.92,0,9.42,1.07,1.29,3.43,3.21,0.21,0.21-1.5.64-1.29,1.07,0.86,1.71,13.07-1.29,13.92-1.29,5.35-.21.43,4.93,7.28,1.29,0.21-.21-0.43-1.71,0-1.93,0.86-.64,3.64-0.86,2.57-1.07-1.5-.21-3.21.21-4.71,0-0.86-.21,3.64-7.5,7.71-3.43,0.43,0.64-.86,1.71-0.43,2.36a1.63,1.63,0,0,0,1.93.64c0.43-.21-0.21-2.14,0-1.71,1.07,0.64,1.07,2.36,2.14,3,0,0,8.78-.64,9-0.64,3,0.86,4.71,3.86,7.71,4.93,4.28,1.29,4.07-3.43,5.35-2.36,0.43,0.64,0,1.93.43,2.36,1.07,0.21,2.14-1.07,3-.64,1.07,0.64,1.5,1.93,2.57,2.78,1.29,1.07-.43,2.14,0,3a1.62,1.62,0,0,0,1.5.86c0.43,0,1.29-1.07,1.5-.86,0.86,1.07-2.14,2.78-1.07,3.86,1.93,1.93,6.85-4.28,6.85-5.35,0.43-1.93-1.07-6.43.43-5.35a1.65,1.65,0,0,1-.43.64c2.14,2.36,9.64-1.93,10.71,1.71,0.21,0.64-1.29.21-1.07,0.86s1.5,0.64,1.93,1.07c0.43,0.64,0,1.93.43,2.36,1.07,0.64,10.07-1.93,10.49-2.14,0.43-.64-0.43-1.93.21-2.14,1.07-.86,2.36.64,3.43-0.21,1.07-.64.43-2.36,1.5-3,3.43-1.29,9.64.21,13.28-.86,0.86-.21-2.14-4.5,1.07-4.93,0.43,0-.43,1.71,0,1.93,1.29,0.64,3-.86,4.5-0.21,0.86,0.21.43,2.14,1.5,2.36C555,261.94,556.88,260,559,260c4.07,0.21-2.57,4.5,5.78,7.07a1.66,1.66,0,0,0,1.07-1.29c2.36-8.78-.43-4.93-3.43-7.5-1.29-1.07,2.36-4.28,2.14-4.5,0-.21-6.43-9.21-6.43-9.21,0.21-4.28,11.57-7.07,13.92-8.78,2.57-2.14,1.07-5.14,1.5-7.71a1.33,1.33,0,0,1,1.29-.86c5.57,1.29,7.28,3,7.5-4.28C582.58,215.89,571,212,566.73,209c-1.93-1.71-2.14-4.5-4.07-6.43s-4.5,0-6.21-1.29c-0.43-.43.64-0.86,0.43-1.29a2.79,2.79,0,0,0-2.78-1.71c-2.78-7.28-2.57-9-6.43-11.57,0.43-3,4.07-1.71,3.21-5.35-0.21-1.71-2.14-1.93-2.57-2.14a18.77,18.77,0,0,1-4.93-5.14v-1.71c0-1.07-.86-1.5-1.5-1.93a1.62,1.62,0,0,1-.86-1.07,1.13,1.13,0,0,0,.64-0.43c0.64-.43-0.86-1.29,0-1.71,1.07-.64,1.93.86,2.57,1.93,1.07,0.86,1.07,4.5,1.5,3.43,2.14-4.28,3.21-9.42,9.85-10.49,0.86,0,3.64,2.36,4.71,1.07,0.86-.86,0-2.36.86-3,0.86-.86,2.36.64,3.21-0.21,1.5-1.07,1.93-4.28,4.28-4.93,0.86-.21,1.29,1.71,1.93,1.07,1.29-1.07.86-3.21,2.14-4.28,1.5-1.29,4.5.21,6.64-.86,0.43-.21,0-1.71.43-1.93,3.21-1.93,7.71-2.14,10.92-4.93,1.07-.86-3.64-1.93-3.21-3.21s0.86-2.57,1.5-2.36c0.86,0.21,1.29,1.29,1.71,1.29,0.64,0,.64-0.43,1.07-0.43a0.46,0.46,0,0,1,.43.43h0.64c2.14,0.43,2.14.64,1.93,1.71s-0.21,1.29.21,1.5a1.62,1.62,0,0,0,.86-0.43c1.07-.64.64,0.43,0,1.71l0.21,0.21c-0.21,1.29.86,1.5,1.71,1.71a1.42,1.42,0,0,0,1.5.43c1.5-.21,1.5-4.07,3.64-10.49,0.86-2.57,1.93-4.07.21-7.71-1.07-2.14-.21-3.86-2.57-5.57-1.07-1.07-3.43-.64-4.5-2.14-0.86-1.07,2.36-1.71.43-4.07-0.64-.86-1.93-2.36-2.14-3.86-0.21-1.29-1.71-1.07-1.07-2.36,3.64-3.86,1.71-4.07,2.57-8.14-0.21-.64-1.29-0.21-1.5-1.07-0.21-1.29.86-3.21,0-4.5-0.43-1.71-2.57-1.29-3.21-3.43-1.29-1.5-.21-3,0.43-4.07,0.43-1.07.86-1.5,0.43-4.28-0.43-1.93-3.43-3.64-5.78-5.57-2.14-1.93-4.71-1.29-5.35-3-0.43-1.29,1.07-.64.64-3.64-0.21-1.29,1.71-2.36,2.78-3.43s1.5-3.43,1.93-4.93,0.86-2.14.64-3.86c-0.43-2.78-3.64-10.49-4.28-14.78-0.43,0,.43-1.71-0.43-1.93s-2.36,1.07-4.07.21A24.17,24.17,0,0,1,574,41.34a2.16,2.16,0,0,0,.64-0.21c0.64,0,.43-1.07.64-0.86s-0.43.64,0,.64c0.64,0,1.07-.86,1.71-1.07,0.64-.43.86,0.21,1.93,0a3.63,3.63,0,0,1,1.71,0l-0.21-1.29-0.21-.43,0.64-.43s0.21,0-.86-0.64-0.86-.86-2.78-2.57-2.14-1.29-1.71-.64A7.13,7.13,0,0,1,576.8,36c0.21,0.86,0,1.5-.43,1.07a1.67,1.67,0,0,0-.86-0.64,0.92,0.92,0,0,0-.64-0.64c-0.64,0-1.29.64-.64,1.07a3.07,3.07,0,0,1,.21,2.78,1.67,1.67,0,0,1-1.5.64c-0.64-1.71,3.64-1.5-1.71-5.14-1.93-1.29,4.5-1.71,2.57-2.36-2.36-3.86-3.64-3.64-3.21-2.14-2.14-.64-5.35.43-5.78,2.14-1.07-2.14-3.21-3.43-4.71-4.93-0.86-1.07-2.57-.64-3.43-1.71-1.07-1.71,0-5.35-1.93-5.35h-0.43V21c-0.64.64-.64,0.21-1.29,0.64-0.86.43-.64,0.86-0.86,1.71s-1.29.64-1.29,0.21-0.21-.86-0.64-0.64a1.44,1.44,0,0,1-1.5-.64c-0.43-.64,0-0.43-0.43,0a14,14,0,0,1-1.71,1.5c-0.86.64-.64-0.86-1.07-0.43-0.43.64,0,1.07-.64,1.29s-0.43.64-.64,1.07-0.86,0-1.29.86A1.11,1.11,0,0,0,544,27.63c0.86,0.21-.43.21-1.29,0s-0.21-.43-0.43-1.07c-0.43-.64,0-0.64.43-1.07,0.43-.64.43-0.21,0.43-1.07s0-.64.43-1.07,1.29,0,2.36-.43,0.21-.21.64-0.64a1.42,1.42,0,0,1,1.29-.21c0.64,0,.43-0.43,1.07-0.43a4.61,4.61,0,0,0,1.71,0,7.29,7.29,0,0,1,2.14-.21,0.54,0.54,0,0,0,.43-0.64h-0.43c-3.43-.21-8.14-1.5-8.57-0.86-1.5,1.93-1.93,4.93-3.43,6.64A29.13,29.13,0,0,0,537,30.2a40.92,40.92,0,0,1-5.57,1.93c-2.57.43-3.21,0-4.28,0.21-2.36,1.29-3.21,8.14-4.5,8.78-3-3.86-2.14,1.5-5.57-4.07-2.14,0-3.64,2.36-5.78,2.14-0.43-.43.64-1.71-2.14-1.71-1.07,0-.64-2.57.86-2.78,2.14-.43,3.43-2.57,5.35-4.07-0.21-3.86-.64-5.35.43-6.85-1.07,0-1.29.64-2.57,0.21s-4.28,2.57-4.71,2.78c-1.93-.64-7.5-4.93-9.21-4.5-1.93.21-3.64,4.5-3.64,4.5s1.29-3.43,1.07-5.14c-0.21-2.36-4.93.43-6.85,0-1.5-1.93,1.93.64,3.43-3,0.43-1.29.86-3,0-4.28-0.21-.64-1.5.64-1.93,0-0.43-.21.43-0.86,1.07-1.07,0,0,.43.21,0.43,0a2.51,2.51,0,0,0-1.07-2.36c-0.64-.43-0.86-0.64-2.14,0-0.86-1.29-1.93-1.93-3-1.71a4.89,4.89,0,0,1-2.57-1.71c-1.07.21-1.5,1.71-2.57,2.36-0.43.21-.43,0-0.21-0.86-3.43-.64-6.85-2.36-10.49-3,0.43-.86-2.78-0.64-4.5-0.86h0Zm-1.93,4.71c-1.5,0-3.64.86-2.57,1.93,1.71,0.86,2.36,1.07,3.21.21C465.85,10.92,466.07,9.64,464.35,9.85Zm99.17,1.29c-1.29.21-2.36,0-3.21,1.07-0.64,1.07-.86,1.93,0,1.07,0.64-.86,1.71-0.86.86,1.07s-0.21,1.29.43,0.64a2.36,2.36,0,0,0,1.07-1.07c0.21-.43.21,0,0.86,0.64a2.78,2.78,0,0,0,1.5,1.07c0.64,0,.64-0.21.64,1.07s0.21,1.29-.43,1.5-0.86.21-1.07-.64,0.21-.64-0.21-1.07,0-.43-0.43,0c-0.64.43-.86,0.43-0.43-0.86,0.21-1.29-.21-1.07-0.86-0.21-0.86.86-.21,0.64-0.21,1.07,0,0.64,0,0-.43-0.43-0.64-.43-1.5,0-2.14,0s0,0.21,0,.86,0.43,0.43.86,0.43,0.64,0,.43.43-0.21.43,0.21,0.43c0.43,0.21.86-.43,0.21,0.43-0.64.64-1.29,1.07-1.71,1.5s0.21,0.64.64,0.64c0.64,0,.43,0,0.64.64s0.86,1.07-.21,1.07-1.71-.43-1.93.43a1.62,1.62,0,0,0,.64,1.71c2.14,1.93,2.57,1.93,3.21,1.71s0.21-.43.43,0.21a1.35,1.35,0,0,0,1.71.86c0.86-.43-0.86-1.5.21-2.57s2.78-2.36,4.07-1.93c1.29,0.21,1.71,1.07,1.07,1.71s1.07,1.5,1.29,0,0.86-1.29-.43-2.57-2.36-.43-3-2.78,1.5-1.07,1.71-3-0.86-1.93-2.78-1.71-3,.21-3.21-1.07c0-1.29,0-.86.64-1.29,0.43-.43.64-1.29-0.64-1.07h0Zm-96,5.78a4.93,4.93,0,0,0-1.93.64c-0.64.43-.43,0.43,0.21,1.29s1.29,0.21,1.71-1.07c0.21-.64.21-0.86,0-0.86h0Zm48.83,0.86c-1.5.43-1.93,2.57-1.5,3a1.14,1.14,0,0,0,.64.43c1.29-.43,1.29-0.64,1.07.21,0,0.86.43,1.93,1.29,1.07a2,2,0,0,1,2.14-.43c0.86,0.21,1.5.64,0.64-1.07s-1.5-3.21-3.64-3.43a0.79,0.79,0,0,1-.64.21h0ZM559.45,18a2.43,2.43,0,0,0-1.29,1.29c-0.43.86,0.64,0.21,1.93-.43,0.21-.21.43-0.21-0.21-0.64-0.21,0-.21-0.21-0.43-0.21h0ZM525.61,35.55h-0.43c-0.86.21-3,.64-2.36,1.71s1.07,1.07,1.07.21,0.43-1.07.21-.43c0,0.64,0,2.36.64-.21,0.43-.64,1.07-1.07.86-1.29h0ZM424.51,49.48c2.36-.64,3.86-0.43,2.78.21s-0.86,1.5-1.71,1.29c-1.07-.43-1.71-1.07-1.07-1.5h0Zm4.71-2.36c4.28-.21,6,0.21,3,0.21C429.44,47.55,427.51,47.55,429.23,47.12Zm7.28-.64c2.14-.21,3-0.86-0.21-0.86S434.8,46.69,436.51,46.48Zm3.43-1.07c0.86,0.43,1.07,1.29.21,0.86C439.51,45.83,439.08,45.19,439.94,45.41Zm2.36-.64c2.36,0,3,.64,1.29.64-1.93,0-1.29,0-1.5.43s-1.29.21-.86-0.43C441.43,44.76,441.43,45,442.29,44.76Zm4.71,0c1.29-.21,1.71-0.43.43-0.43s-1.71-.21-1.71.21,0.64,0.21,1.29.21h0Z"/></svg>