<svg id="Layer_1" data-name="Layer 1" xmlns="http://www.w3.org/2000/svg" viewBox="0 0 606 622"><defs><style>.cls-1{fill:#fff;stroke:#fff;stroke-width:0.4px;}</style></defs><title>Untitled-2</title><path id="es-4" class="cls-1" d="M279.51,430.72c1.93,0.86,4.07,1.29,5.35,2.36,0.43,0.64.86,3.43,2.36,3.21,2.14-.21,4.07-1.71,6.43-1.71,2.57,0,7.28,5.35,9.85,4.5,1.07-.21,0-2.36.86-3,4.07-2.78,8.78-.21,13.07.86h1.07c1.29,1.29,2.36,2.78,1.93,4.28-0.43,2.14-4.07,1.71-5.35,3-1.07,1.07,3.21,7.28.43,11.78-1.29,3-12.85,7.5-16.06,8.78-3,1.07-7.5,2.14-9.64,4.07-1.5,1.07-4.07,5.14-6.43,5.57-9,2.78-25.27.86-32.56,6.64-1.93,1.71-5.57,3-5.14,5.35,0.86,1.93,4.71,1.71,4.5,3.43,0,0.86-8.35,2.78-8.78,3-3.21,2.36-4.28,7.07-6.85,9.64-7.5,7.71-17.35,15.42-22.06,25.27-2.14,4.07.86,16.92,3.21,20.35,0.86,1.07,10.71,6.64,8.35,8.35-1.93,1.71-6.43,2.14-8.35,3.43-0.43.64-.43,1.93-1.07,2.14-0.43.64-1.29-.21-1.93-0.21-2.14.64-4.5,0.86-6.43,2.14-0.86.86-.21,2.78-1.29,3.43-0.86.64-2.14-.64-2.57,0-1.07,1.29-.21,3.43-1.07,4.5-1.07,1.07-3.21,0-4.07,1.29-1.07,1.71.43,4.07-.21,5.57-2.14,5.35-6.85-.86-7.28,7.71,0,2.14,4.28,3,3.64,4.93-0.86,1.93-3.64,1.71-5.78,1.29-1.29,0-2.57-1.29-4.07-1.71-5.57-1.71-12.21,1.07-17.13,4.28-8.35,5.35-8.35,15.85-16.92,20.13-3.21,1.93-4.28-7.07-12.21-4.93-1.5.64-2.36,2.78-4.28,3.21-2.36.86-7.92-3.86-10.49-4.07-3.21-.86-6.64,1.07-10.07.64-1.93-.64-3-2.14-4.71-2.78-3.43-1.29-19.28-3.86-22.06-3.21-3.21.86-4.71,4.93-7.71,6.21-4.28,1.71-9.64-3.21-15.42-.21-4.71,2.36-4.28,4.5-6.64,8.14-0.21.21-1.93-1.29-3-.64-1.5,1.29-3,3.43-5.14,4.28-0.86.21-.86-1.71-1.5-2.14-1.07-.86-2.57-1.07-3.43-1.93-1.07-1.29-1.29-3.21-2.57-4.28-0.86-.86-2.36,0-3.21-0.86-1.93-1.93-4.5-10.71-5.14-13.49,0-.21,4.07,3.86,3.43,1.29,0-.86-1.5,0-1.93-0.64-0.21-.64,1.07-1.07.86-1.71-0.86-4.5-4.71.86-4.5-7.07,0,0,10.49-4.93,7.92-5.35-2.14-.64-3.43,4.07-5.57,3.43-1.93-.21-1.07-3.43-1.93-5.14a21.7,21.7,0,0,0-3-4.28l-7.28-7.07v-0.64a1,1,0,0,1-1.07.86c-1.5.21-2.36-1.93-3.64-2.78-1.07-.64-5.78-1.29-9.42-1.29,0.43-11.35-2.14-13.28,6.64-21,1.5-1.29,1.29-4.28,3-5.14,0.43-.21,13.71-0.64,10.49-6-0.86-1.29-3.43.86-4.71,0-1.29-1.07-1.07-3.21-1.5-4.93s-0.43-3.43-1.5-4.93c-0.21-.64-1.93,0-1.93-0.64,0.86-1.93,2.57-3.21,3.43-5.14,1.5-3.21-3-.86,1.5-4.5,4.07-3.21,9.42-2.78,9.85-9.64,0-.64-5.14-4.07-6.21-6.21-1.5-3.43.21-9.21,0.21-9.64-0.21-.21-4.5-8.57-4.5-8.78-0.21-.64.86,0.21,1.29,0.21,2.36,0.86,4.07,1.07,6.43,1.71,6.21,1.71,7.5,2.14,10.71-4.07,3.64-7.5-.21-4.93-1.07-10.49-0.86-5.14,7.5-2.78,7.71-6.43,0.21-2.78-2.57-.21-1.07-3.43,0.21-.64,1.29-0.64,1.5-1.29A18.23,18.23,0,0,0,47.13,453c0.21-2.14,1.93-4.28,1.5-6.43l-2.36-6.43c0.86-.86,2.57.86,3.64,0.21l5.57-6C59.55,432.22,67,432,69.19,426c1.5-5.35-5.35-4.93-7.28-5.14-1.29-.21,1.07-10.49,0-11.14-5.14-2.78-6.21-.21-12.21-2.78-1.07-.64-0.86-3.21-3.21-1.71-0.43.64,0.43,1.93,0,2.36-3.64,3.21-7.71-.64-8.78-0.86-1.07-.64-2.36.86-3.21,0.21-0.43-.21,1.5-0.86,1.07-1.29-0.21-1.07-1.5-1.29-2.57-1.29-1.5-.21-3.43.21-5.14,0-0.21-.21.21-0.86,0.21-1.29,0-.21.21-1.29,0-1.07-1.29.21-4.5,4.07-6.85,2.36-6.43-4.5,6.21-5.57,3-8.78-0.43-.64-1.5,0-2.14-0.64-0.21-.64,1.07-1.71.43-1.93-4.71-1.07-11.57.64-15.42,2.78,0.43-2.14-2.36-4.07-2.36-6.21-0.21-.86,1.29,1.07,1.93.64,0.43-.21-0.43-1.29-0.21-1.93,0.43-2.36,4.5-1.71,6.43-3.21,0.43-.21,1.5-1.71.86-1.29C12.21,384,10.5,385.74,9,386c-1.29.21-1.93-2.14-.86-3.21,1.5-1.07,5.14-.21,5.57-2.14,0.21-1.71-3.43.64-4.71,0a5,5,0,0,1-2.14-3c-0.21-2.78,2.36.86,2.57,0.64,0.43-1.07,0-2.36.86-3.43,0.86-1.29,3.21-1.71,3.43-3.21,1.29-13.28-9.42,1.93-11.57-11.14-1.5-8.78,5.78-6.21,6.21-7.5,0.21-.86-2.14,0-3-0.64-0.21-.64.86-1.07,1.07-1.07,3-.64,4.5.21,6.64,0,6.85-.64,16.28-6.43,22.7-9.21,2.36-1.07,5.14-4.5,7.5-3,1.07,0.86-1.5,4.07-.21,4.28,2.14,0.21,3.43-3.43,5.57-3.43,7.28,0,6.64,12.64,13.28,14.35,1.29,0.21,1.93-2.78,3.21-2.36,7.5,1.93,3.43,2.14,10.92,3.21,1.93,0.21,5.35-.64,6.85-0.21,1.5,0.64,2.36,2.14,4.07,2.14,2.14,0,4.07-2.78,6.21-2.14,1.93,0.64,2.14,3.86,3.64,5.14s4.71-.21,6.43,1.29c0.43,0.64-1.07,1.29-.43,1.71,0.43,0.86,2.14-1.07,3-.64,6.64,4.5,24,13.28,32.77,10.49,0.43-.21.43-1.29,1.07-1.71a16.1,16.1,0,0,1,3.21,0c2.14,0.21,7.71-.21,9.42,3a2.26,2.26,0,0,1-.43,1.07c2.14,0.64,7.92,6.21,10.07,6.21,0.86,0-.43-1.93,0-2.36,0.43-.86,1.5-1.07,2.57-1.29,7.71-1.07,2.57-.21,5.78,3.43,1.07,1.07,3.21-.64,4.28.21,1.5,0.86,2.36,2.78,3.64,3.43,3.43,1.93,10.92,1.71,16.06.21a57.57,57.57,0,0,0,4.5,4.28c0.43,0.21.21-1.07,0.43-1.07,1.29,0.21,3,.86,3.64,1.93,2.36,2.78-5.35,6-1.93,7.5,1.5,0.64,3.21-2.36,3.64-1.93,0.21,0.64-.43,1.93,0,2.36,3.64,3.43,9.64,2.14,13.07,4.93,0.21,0.21,3,6.43,3.21,6.43,3.43,2.78,6.85-2.14,10.71,1.07,1.93,1.71.43,5.14,4.07,5.14,1.5,0.21,2.57-1.29,4.28-1.07,1.5,0.21,2.36,2.14,4.07,2.36,0.86,0,.86-1.71,1.5-1.71,2.57-.21,5.14,1.93,7.92,2.14,0,0-1.29-6.21,1.93-5.57,4.5,0.86,7.28,4.07,10.07,6.64a3.5,3.5,0,0,0,1.5,0c1.29,0.21,3,.21,3.64,1.07,1.29,1.07.43,3.43,1.93,4.28v0.21c-0.64,5.35-1.28,9,7.07,6.64h0Z"/><path id="ad-4" class="cls-1" d="M279.51,430.72c-12,3.43-5.35-6.43-4.71-6.43C281.66,423.65,282.3,427.29,279.51,430.72Z"/></svg>